<svg width="62" height="63" viewBox="0 0 62 63" fill="none" xmlns="http://www.w3.org/2000/svg">
<circle cx="31.4784" cy="31.5" r="30.5216" fill="black"/>
<path d="M18.4212 32.507C17.9037 32.4195 17.4641 32.3979 17.0542 32.2658C14.9883 31.5967 14.1997 28.7926 15.5433 26.9289C15.7041 26.7049 15.8922 26.5039 16.0751 26.3015C20.3847 21.5274 24.6956 16.7547 29.0066 11.9821C30.6523 10.1601 32.3163 10.1615 33.9659 11.9878C38.3378 16.828 42.7162 21.6623 47.0777 26.514C48.8039 28.4336 48.2073 31.4632 45.9624 32.2429C45.537 32.3907 45.0766 32.418 44.5448 32.5157C44.5448 32.7669 44.5448 33.0469 44.5448 33.3255C44.5448 36.5331 44.4956 39.7421 44.5591 42.9468C44.6188 45.9247 42.6254 47.5903 40.4829 47.4338C38.998 47.3261 37.5013 47.4137 36.0099 47.4122C34.9944 47.4108 34.687 47.0834 34.6844 45.9764C34.6805 43.3675 34.6844 40.7587 34.6818 38.1498C34.6805 36.5216 34.1138 35.897 32.6457 35.8956C31.8247 35.8941 31.0025 35.8913 30.1816 35.8956C28.8898 35.9027 28.2907 36.5675 28.2868 38.0177C28.2803 40.6266 28.2855 43.2354 28.2842 45.8443C28.2829 47.115 28.0144 47.4137 26.8835 47.4137C25.348 47.4137 23.8137 47.4151 22.2782 47.4137C19.9347 47.4108 18.4341 45.7653 18.4251 43.1522C18.4134 39.8484 18.4212 36.546 18.4212 33.2422C18.4212 33.0081 18.4212 32.7727 18.4212 32.507Z" fill="white"/>
</svg>
