<svg width="140" height="28" viewBox="0 0 140 28" fill="none" xmlns="http://www.w3.org/2000/svg">
<path d="M0 26.5158C0 25.5416 1.42337 25.9918 1.42337 24.2306V3.85059C1.42337 1.60278 0.0748637 2.27655 0.0748637 1.52792C0.0748637 1.07874 0.524046 0.890625 1.34851 0.890625H5.54472C6.36918 0.890625 6.93066 0.965488 6.93066 1.52792C6.93066 2.12778 5.69444 1.9771 5.69444 3.66343V22.4703C5.69444 23.2948 5.9939 23.3696 6.44404 23.3696H16.5219C18.0201 23.3696 18.2831 22.3955 19.0317 22.8456C19.3312 23.0328 19.2189 23.7824 19.0317 24.0818L17.4576 26.5916C17.1582 27.0782 16.8578 27.1157 16.5209 27.1157H1.34851C0.486614 27.1157 0 27.0782 0 26.5158Z" fill="black"/>
<path d="M21.0914 26.6657C21.0914 25.6541 22.7404 26.0658 22.7404 24.2682L22.7029 4.11277C22.7029 1.67781 21.2047 2.61455 21.2047 1.37836C21.2047 0.741063 22.4783 0.890789 23.6022 0.890789H41.5484C41.9976 0.890789 42.4852 1.00308 42.4852 1.71524V4.52548C42.4852 4.97466 42.4852 5.83654 41.773 5.83654C41.0234 5.83654 41.4361 4.60034 39.3755 4.60034H27.6852C27.236 4.60034 26.973 4.82493 26.973 5.34993V10.932C26.973 11.7565 27.1602 11.9811 27.8349 11.9811H35.4777C36.714 11.9811 36.714 10.9694 37.239 10.9694C37.9137 10.9694 37.9511 11.5693 37.9511 12.3928V15.4276C37.9511 16.4767 37.6891 16.7761 37.1641 16.7761C36.7149 16.7761 36.5642 15.6522 35.4777 15.6522H28.0595C27.3474 15.6522 26.973 15.9517 27.0105 16.5515V22.5079C27.0105 23.3698 27.4222 23.4072 28.1344 23.4072H39.674C41.5475 23.4072 40.8727 22.0962 41.8095 22.0962C42.4842 22.0962 42.4842 22.696 42.4842 23.4072V26.3288C42.4842 26.8538 42.2971 27.1158 41.8469 27.1158H22.5532C22.2153 27.1158 21.0914 27.2281 21.0914 26.6657Z" fill="black"/>
<path d="M45.8541 26.5916C45.8541 25.58 47.3523 26.105 47.2774 23.8188V4.11261C47.24 1.82737 45.9664 2.27655 45.9664 1.45306C45.9664 0.928056 46.453 0.890625 47.6527 0.890625H50.3123C51.0245 0.890625 51.3988 1.19008 51.3988 1.8648V4.48692C51.3988 5.16165 51.6608 5.34881 52.1484 5.83541L65.5231 17.3374C66.0097 17.7866 66.4598 17.6743 66.4598 16.8124V4.71247C66.4598 1.75251 65.1113 2.5021 65.1113 1.52792C65.1113 0.890625 65.7112 0.890625 67.3217 0.890625H69.869C71.255 0.890625 72.0045 0.965488 72.0045 1.60278C72.0045 2.53953 70.656 1.8648 70.656 4.48788V24.269C70.656 25.7297 71.8548 25.5052 71.8548 26.4793C71.8548 27.1166 71.1801 27.1166 70.6935 27.1166H67.172C66.647 27.1166 66.4598 26.7049 66.4598 26.2173V24.2315C66.4598 23.8188 66.1604 23.2574 65.6728 22.7707L52.5601 11.643C51.8854 11.0806 51.4362 11.2687 51.4362 12.1297V23.8937C51.4362 26.2538 53.0103 25.5426 53.0103 26.5916C53.0103 27.1915 52.5985 27.1157 51.6243 27.1157H47.241C46.4914 27.1157 45.8541 27.1157 45.8541 26.5916Z" fill="black"/>
<path d="M76.124 26.3658C76.124 25.3917 77.5857 25.8792 77.5857 23.9309V4.18723C77.5857 1.902 76.1998 2.38861 76.1998 1.45186C76.1998 0.814565 77.0991 0.889428 77.8861 0.889428H88.2624C95.8678 0.889428 100.775 6.32179 100.775 13.8148C100.775 21.2329 95.9427 27.1145 88.2999 27.1145H77.7729C77.0233 27.1154 76.124 27.0406 76.124 26.3658ZM87.0637 23.2562C92.7581 23.2562 96.2422 20.2588 96.2422 13.7399C96.2422 7.03394 92.5709 4.71127 87.0637 4.74871L82.6429 4.78614C82.043 4.78614 81.7435 5.08559 81.7435 5.57316V22.2445C81.7435 23.1064 81.9307 23.2562 82.6429 23.2562H87.0637Z" fill="black"/>
<path d="M100.775 26.4035C100.775 25.4668 102.049 25.8036 102.611 24.1557L109.729 3.62502C110.178 2.27653 109.205 2.31396 109.205 1.60181C109.205 1.07777 109.542 0.889648 110.104 0.889648H115.612C116.212 0.889648 116.548 1.07681 116.548 1.60181C116.548 2.42626 115.312 2.31396 115.836 3.62502L123.853 24.3428C124.416 25.8036 125.502 25.5416 125.502 26.4035C125.502 27.0408 125.128 27.1157 124.079 27.1157H119.583C118.721 27.1157 118.347 27.0408 118.347 26.4784C118.347 25.3919 119.658 25.8411 119.209 24.5674L118.534 22.6939C118.347 22.1699 118.048 22.0941 117.56 22.0941H108.494C108.12 22.0941 107.669 22.2064 107.482 22.6191L107.145 23.9301C106.583 26.1031 107.708 25.2038 107.708 26.4784C107.708 27.0398 107.145 27.1157 106.059 27.1157H101.824C101.299 27.1157 100.775 27.0034 100.775 26.4035ZM116.435 18.3864C116.884 18.3864 116.959 17.9747 116.81 17.562L113.101 7.22132C112.951 6.80958 112.614 6.84701 112.501 7.18389L108.867 17.7117C108.718 18.1609 108.942 18.3855 109.392 18.3855H116.435V18.3864Z" fill="black"/>
<path d="M131.645 19.2482V16.5129C131.645 15.9514 131.308 15.651 130.708 15.651H128.049C127.525 15.651 127.375 15.3141 127.375 14.9388V12.5413C127.375 12.1295 127.637 11.8666 128.124 11.8666H130.972C131.459 11.8666 131.646 11.6045 131.646 11.0795V8.2338C131.646 7.74719 131.871 7.44678 132.358 7.44678H134.868C135.543 7.44678 135.767 7.67137 135.767 8.30866V11.0056C135.767 11.5681 135.954 11.8675 136.554 11.8675H139.176C139.739 11.8675 140.001 12.0921 140.001 12.6545V14.9772C140.001 15.4264 139.664 15.6519 139.251 15.6519H136.629C136.18 15.6519 135.767 15.8017 135.767 16.439V19.2492C135.767 19.8107 135.543 20.0737 135.055 20.0737H132.357C131.87 20.0717 131.645 19.66 131.645 19.2482Z" fill="black"/>
</svg>
