<svg width="51" height="43" viewBox="0 0 51 43" fill="none" xmlns="http://www.w3.org/2000/svg">
<path d="M0 42.0038C0 40.4067 2.15507 41.1447 2.15507 38.2588V4.85682C2.15507 1.17241 0.116903 2.27938 0.116903 1.05125C0.11182 0.313263 0.792904 0.00485229 2.03817 0.00485229H8.38649C9.63175 0.00485229 10.4856 0.126014 10.4856 1.05125C10.4856 2.03155 8.61521 1.78923 8.61521 4.55391V35.3785C8.61521 36.7278 9.06757 36.8545 9.74865 36.8545H24.9917C27.2586 36.8545 27.6551 35.2573 28.7885 35.9953C29.2409 36.3037 29.0732 37.5319 28.7885 38.022L26.4098 42.136C25.9574 42.9346 25.5051 42.9951 24.9917 42.9951H2.03817C0.736994 42.9896 0 42.9291 0 42.0038Z" fill="black"/>
<path d="M38.3644 30.0914V25.6085C38.3644 24.6887 37.8561 24.1986 36.9463 24.1986H32.9208C32.1279 24.1986 31.8992 23.6479 31.8992 23.031V19.0988C31.8992 18.4214 32.2956 17.9918 33.0326 17.9918H37.3377C38.0747 17.9918 38.3593 17.5622 38.3593 16.7031V12.0384C38.3593 11.2398 38.6998 10.7497 39.4368 10.7497H43.2336C44.2553 10.7497 44.5958 11.1187 44.5958 12.1595V16.5819C44.5958 17.5017 44.8804 17.9918 45.7852 17.9918H49.7497C50.5985 17.9918 50.9949 18.3608 50.9949 19.2805V23.0861C50.9949 23.8241 50.4867 24.1931 49.8615 24.1931H45.897C45.2159 24.1931 44.5958 24.4409 44.5958 25.4818V30.0859C44.5958 31.0057 44.2553 31.4352 43.5183 31.4352H39.4419C38.7049 31.4462 38.3644 30.7688 38.3644 30.0914Z" fill="black"/>
</svg>
